<svg width="800" height="800" viewBox="0 0 800 800" fill="none" xmlns="http://www.w3.org/2000/svg">
<g clip-path="url(#clip0_2374_244)">
<path d="M66.1 133V100.6H269.5C408.1 100.6 480.1 100.9 485.5 101.5C526.9 103.9 563.5 113.2 595.3 129.4C626.5 145.6 649.9 168.4 665.5 197.8C670.9 208.6 674.8 220.3 677.2 232.9C680.2 247.9 680.5 264.1 678.1 281.5C671.5 308.5 657.7 331.6 636.7 350.8C613.3 370 585.4 383.8 553 392.2L543.1 394.9L549.4 395.8C606.4 405.4 648.4 426.1 675.4 457.9C690.4 476.5 700.6 497.5 706 520.9C707.2 526.3 707.8 535 707.8 547C708.4 572.2 702.4 596.8 689.8 620.8C664 670 617.2 700.6 549.4 712.6C545.2 713.2 540.7 713.8 535.9 714.4C519.7 716.8 435.4 718 283 718H66.1V685.6V653.2H114.7H163.3V409.3V165.4H114.7H66.1V133ZM475.6 168.1L469.3 166.3L386.5 165.4H303.7V267.1V369.7H368.5C413.5 369.7 437.8 369.4 441.4 368.8C487 363.4 515.2 338.2 526 293.2C526 291.4 526.3 289.6 526.9 287.8C530.5 272.8 531.1 257.5 528.7 241.9C523.9 202.3 506.2 177.7 475.6 168.1ZM490.9 427.3L484.6 424.6H393.7H303.7V538.9V653.2H383.8C443.8 653.2 478.9 651.7 489.1 648.7C528.7 636.1 550 605.2 553 556C553.6 548.8 553.6 541.3 553 533.5C551.2 511.9 547.6 493.9 542.2 479.5C531.4 453.1 514.3 435.7 490.9 427.3Z" fill="#02C7BE"/>
</g>
<defs>
<clipPath id="clip0_2374_244">
<rect width="800" height="800" fill="white"/>
</clipPath>
</defs>
</svg>
